<svg width="40" height="40" viewBox="0 0 40 40" fill="none" xmlns="http://www.w3.org/2000/svg">
<path d="M20.0002 3.33301C16.7038 3.33301 13.4815 4.31049 10.7407 6.14185C7.99985 7.9732 5.86364 10.5762 4.60218 13.6216C3.34072 16.6671 3.01066 20.0182 3.65375 23.2512C4.29684 26.4842 5.88418 29.4539 8.21506 31.7848C10.5459 34.1157 13.5156 35.703 16.7487 36.3461C19.9817 36.9892 23.3328 36.6591 26.3782 35.3977C29.4237 34.1362 32.0266 32 33.858 29.2592C35.6894 26.5184 36.6668 23.296 36.6668 19.9997C36.662 15.5809 34.9045 11.3445 31.7799 8.21992C28.6554 5.09537 24.419 3.33786 20.0002 3.33301ZM20.0002 33.333C17.3631 33.333 14.7852 32.551 12.5926 31.0859C10.3999 29.6209 8.69095 27.5385 7.68178 25.1021C6.67261 22.6658 6.40856 19.9849 6.92303 17.3985C7.4375 14.8121 8.70738 12.4363 10.5721 10.5716C12.4368 8.70688 14.8126 7.43701 17.399 6.92254C19.9854 6.40807 22.6663 6.67211 25.1026 7.68128C27.539 8.69045 29.6213 10.3994 31.0864 12.5921C32.5515 14.7847 33.3335 17.3626 33.3335 19.9997C33.3295 23.5347 31.9235 26.9238 29.4239 29.4234C26.9242 31.923 23.5352 33.329 20.0002 33.333Z" fill="black"/>
<path d="M27.1553 13.8213L18.3336 22.643L14.5119 18.8213L12.1553 21.178L18.3336 27.3563L29.5119 16.178L27.1553 13.8213Z" fill="black"/>
</svg>
