<svg width="16" height="16" viewBox="0 0 16 16" fill="none" xmlns="http://www.w3.org/2000/svg">
<path d="M7.99982 14.3805L2.34316 8.72379C1.59295 7.97367 1.17145 6.95625 1.17139 5.89536C1.17132 4.83446 1.5927 3.817 2.34282 3.06679C3.09294 2.31658 4.11036 1.89508 5.17125 1.89502C6.23215 1.89496 7.24961 2.31634 7.99982 3.06646C8.75039 2.31718 9.76761 1.89636 10.8282 1.89636C11.8887 1.89636 12.9059 2.31718 13.6565 3.06646C14.4054 3.8172 14.826 4.83435 14.826 5.89479C14.826 6.95523 14.4054 7.97238 13.6565 8.72312L7.99982 14.3805ZM5.17116 3.22846C4.64369 3.22844 4.12806 3.38485 3.68949 3.6779C3.25092 3.97096 2.90911 4.3875 2.7073 4.87484C2.50548 5.36217 2.45273 5.89842 2.55571 6.41574C2.65868 6.93306 2.91277 7.40822 3.28582 7.78112L7.99982 12.4951L12.7138 7.78112C12.9846 7.5164 13.1959 7.19704 13.3336 6.8443C13.4713 6.49157 13.5323 6.11355 13.5126 5.73539C13.4929 5.35724 13.3928 4.98762 13.2191 4.65114C13.0454 4.31466 12.802 4.01903 12.5052 3.78393C12.2083 3.54883 11.8648 3.37965 11.4975 3.28764C11.1302 3.19563 10.7475 3.1829 10.3749 3.25031C10.0022 3.31772 9.64824 3.46372 9.33644 3.67858C9.02463 3.89345 8.76216 4.17226 8.56649 4.49646L7.99982 5.41112L7.43316 4.49646C7.19923 4.10648 6.86743 3.78442 6.47065 3.56224C6.07386 3.34005 5.62589 3.22544 5.17116 3.22979V3.22846Z" fill="#FAAD13"/>
</svg>
