<svg width="22" height="22" viewBox="0 0 22 22" fill="none" xmlns="http://www.w3.org/2000/svg">
<path d="M20.1699 10.9546L14.8541 9.04407L12.6321 6.25419C12.4389 6.01797 12.1955 5.82773 11.9197 5.69728C11.6438 5.56682 11.3423 5.49944 11.0371 5.5H5.53988C5.20367 5.49989 4.87253 5.58203 4.57535 5.73925C4.27816 5.89647 4.02395 6.124 3.83488 6.402L1.97038 9.14032C1.58204 9.71021 1.37456 10.3839 1.375 11.0736V16.5C1.375 16.6823 1.44743 16.8572 1.57636 16.9861C1.7053 17.1151 1.88016 17.1875 2.0625 17.1875H3.53513C3.68468 17.7775 4.02671 18.3009 4.5071 18.6747C4.98748 19.0485 5.5788 19.2515 6.1875 19.2515C6.7962 19.2515 7.38752 19.0485 7.8679 18.6747C8.34829 18.3009 8.69032 17.7775 8.83988 17.1875H13.1601C13.3097 17.7775 13.6517 18.3009 14.1321 18.6747C14.6125 19.0485 15.2038 19.2515 15.8125 19.2515C16.4212 19.2515 17.0125 19.0485 17.4929 18.6747C17.9733 18.3009 18.3153 17.7775 18.4649 17.1875H19.9375C20.1198 17.1875 20.2947 17.1151 20.4236 16.9861C20.5526 16.8572 20.625 16.6823 20.625 16.5V11.6016C20.625 11.46 20.5813 11.3219 20.4998 11.2061C20.4183 11.0903 20.3031 11.0025 20.1699 10.9546ZM6.1875 17.875C5.91555 17.875 5.64971 17.7944 5.42359 17.6433C5.19747 17.4922 5.02124 17.2774 4.91717 17.0262C4.8131 16.7749 4.78587 16.4985 4.83892 16.2318C4.89198 15.965 5.02293 15.72 5.21523 15.5277C5.40753 15.3354 5.65253 15.2045 5.91925 15.1514C6.18598 15.0984 6.46244 15.1256 6.71369 15.2297C6.96494 15.3337 7.17968 15.51 7.33077 15.7361C7.48186 15.9622 7.5625 16.2281 7.5625 16.5C7.56195 16.8645 7.41691 17.2139 7.15917 17.4717C6.90143 17.7294 6.55201 17.8745 6.1875 17.875ZM15.8125 17.875C15.5406 17.875 15.2747 17.7944 15.0486 17.6433C14.8225 17.4922 14.6462 17.2774 14.5422 17.0262C14.4381 16.7749 14.4109 16.4985 14.4639 16.2318C14.517 15.965 14.6479 15.72 14.8402 15.5277C15.0325 15.3354 15.2775 15.2045 15.5443 15.1514C15.811 15.0984 16.0874 15.1256 16.3387 15.2297C16.5899 15.3337 16.8047 15.51 16.9558 15.7361C17.1069 15.9622 17.1875 16.2281 17.1875 16.5C17.187 16.8645 17.0419 17.2139 16.7842 17.4717C16.5264 17.7294 16.177 17.8745 15.8125 17.875ZM19.25 15.8125H18.4649C18.3153 15.2225 17.9733 14.6991 17.4929 14.3253C17.0125 13.9515 16.4212 13.7485 15.8125 13.7485C15.2038 13.7485 14.6125 13.9515 14.1321 14.3253C13.6517 14.6991 13.3097 15.2225 13.1601 15.8125H8.83988C8.69032 15.2225 8.34829 14.6991 7.8679 14.3253C7.38752 13.9515 6.7962 13.7485 6.1875 13.7485C5.5788 13.7485 4.98748 13.9515 4.5071 14.3253C4.02671 14.6991 3.68468 15.2225 3.53513 15.8125H2.75V11.0736C2.74993 10.6596 2.8745 10.2552 3.1075 9.91307L4.97131 7.17613C5.03434 7.08337 5.11909 7.00744 5.2182 6.95495C5.3173 6.90247 5.42773 6.87502 5.53988 6.875H11.0371C11.1372 6.87469 11.2361 6.8964 11.3269 6.93857C11.4177 6.98075 11.4981 7.04237 11.5624 7.11907L13.8999 10.0533C13.9794 10.1531 14.0851 10.2288 14.2051 10.2719L19.25 12.0849V15.8125Z" fill="black"/>
</svg>
