<svg width="24" height="25" viewBox="0 0 24 25" fill="none" xmlns="http://www.w3.org/2000/svg">
<path d="M17 18.2603C15.89 18.2603 15 19.1503 15 20.2603C15 20.7907 15.2107 21.2994 15.5858 21.6745C15.9609 22.0495 16.4696 22.2603 17 22.2603C17.5304 22.2603 18.0391 22.0495 18.4142 21.6745C18.7893 21.2994 19 20.7907 19 20.2603C19 19.7298 18.7893 19.2211 18.4142 18.846C18.0391 18.471 17.5304 18.2603 17 18.2603ZM1 2.26025V4.26025H3L6.6 11.8503L5.24 14.3003C5.09 14.5803 5 14.9103 5 15.2603C5 15.7907 5.21071 16.2994 5.58579 16.6745C5.96086 17.0495 6.46957 17.2603 7 17.2603H19V15.2603H7.42C7.3537 15.2603 7.29011 15.2339 7.24322 15.187C7.19634 15.1401 7.17 15.0766 7.17 15.0103C7.17 14.9603 7.18 14.9203 7.2 14.8903L8.1 13.2603H15.55C16.3 13.2603 16.96 12.8403 17.3 12.2303L20.88 5.76025C20.95 5.60025 21 5.43025 21 5.26025C21 4.99504 20.8946 4.74068 20.7071 4.55315C20.5196 4.36561 20.2652 4.26025 20 4.26025H5.21L4.27 2.26025M7 18.2603C5.89 18.2603 5 19.1503 5 20.2603C5 20.7907 5.21071 21.2994 5.58579 21.6745C5.96086 22.0495 6.46957 22.2603 7 22.2603C7.53043 22.2603 8.03914 22.0495 8.41421 21.6745C8.78929 21.2994 9 20.7907 9 20.2603C9 19.7298 8.78929 19.2211 8.41421 18.846C8.03914 18.471 7.53043 18.2603 7 18.2603Z" fill="#1B0072"/>
</svg>
