<svg width="24" height="25" viewBox="0 0 24 25" fill="none" xmlns="http://www.w3.org/2000/svg">
<path d="M22 22.1533H2" stroke="#1B0072" stroke-width="1.5" stroke-linecap="round"/>
<path d="M21 22.1533V14.6533C21 14.2555 20.842 13.874 20.5607 13.5927C20.2794 13.3114 19.8978 13.1533 19.5 13.1533H16.5C16.1022 13.1533 15.7206 13.3114 15.4393 13.5927C15.158 13.874 15 14.2555 15 14.6533V22.1533V5.15332C15 3.73932 15 3.03232 14.56 2.59332C14.122 2.15332 13.415 2.15332 12 2.15332C10.586 2.15332 9.879 2.15332 9.44 2.59332C9 3.03132 9 3.73832 9 5.15332V22.1533V9.65332C9 9.2555 8.84196 8.87396 8.56066 8.59266C8.27936 8.31136 7.89782 8.15332 7.5 8.15332H4.5C4.10218 8.15332 3.72064 8.31136 3.43934 8.59266C3.15804 8.87396 3 9.2555 3 9.65332V22.1533" stroke="#1B0072" stroke-width="1.5"/>
</svg>
