<svg width="20" height="21" viewBox="0 0 20 21" fill="none" xmlns="http://www.w3.org/2000/svg">
<g clip-path="url(#clip0_176_623)">
<path d="M11.0784 0.706545C11.3724 0.706545 11.6354 0.889545 11.7344 1.16354L12.4404 3.12054C12.6934 3.18354 12.9104 3.24654 13.0944 3.31254C13.2954 3.38454 13.5544 3.49355 13.8744 3.64254L15.5184 2.77254C15.6526 2.70145 15.8062 2.67579 15.9562 2.69941C16.1062 2.72303 16.2445 2.79466 16.3504 2.90354L17.7964 4.39854C17.9884 4.59754 18.0424 4.88854 17.9344 5.14254L17.1634 6.94954C17.2914 7.18455 17.3934 7.38554 17.4714 7.55354C17.5554 7.73655 17.6594 7.98854 17.7834 8.31354L19.5804 9.08354C19.8504 9.19854 20.0174 9.46854 19.9994 9.75754L19.8674 11.8325C19.8583 11.9673 19.8099 12.0965 19.7282 12.2041C19.6464 12.3116 19.5349 12.3928 19.4074 12.4375L17.7054 13.0425C17.6564 13.2775 17.6054 13.4785 17.5514 13.6485C17.4643 13.9111 17.3648 14.1694 17.2534 14.4225L18.1084 16.3125C18.1687 16.4453 18.185 16.594 18.1547 16.7367C18.1245 16.8794 18.0494 17.0086 17.9404 17.1055L16.3144 18.5575C16.2073 18.6528 16.0737 18.713 15.9314 18.7301C15.7891 18.7473 15.645 18.7206 15.5184 18.6535L13.8424 17.7655C13.5802 17.9044 13.3096 18.0269 13.0324 18.1325L12.3004 18.4065L11.6504 20.2065C11.6022 20.3384 11.5153 20.4525 11.4011 20.5341C11.2869 20.6157 11.1507 20.6608 11.0104 20.6635L9.11037 20.7065C8.96633 20.7103 8.82466 20.6694 8.70486 20.5893C8.58505 20.5093 8.493 20.3941 8.44137 20.2595L7.67537 18.2325C7.41401 18.1432 7.15524 18.0465 6.89937 17.9425C6.69008 17.852 6.48396 17.7542 6.28137 17.6495L4.38137 18.4615C4.25618 18.515 4.11816 18.5308 3.98411 18.5072C3.85006 18.4836 3.72577 18.4215 3.62637 18.3285L2.22037 17.0095C2.11569 16.9118 2.0444 16.7836 2.01658 16.643C1.98877 16.5025 2.00583 16.3568 2.06537 16.2265L2.88237 14.4465C2.77371 14.2357 2.67297 14.0209 2.58037 13.8025C2.47227 13.5353 2.37222 13.2648 2.28037 12.9915L0.490367 12.4465C0.344868 12.4026 0.217962 12.3118 0.129357 12.1883C0.0407526 12.0648 -0.0045913 11.9155 0.000367469 11.7635L0.0703675 9.84254C0.0753501 9.71721 0.114504 9.59562 0.183595 9.49092C0.252687 9.38623 0.349086 9.30241 0.462367 9.24854L2.34037 8.34654C2.42737 8.02754 2.50337 7.77954 2.57037 7.59855C2.66471 7.35679 2.76947 7.11923 2.88437 6.88654L2.07037 5.16654C2.00859 5.03593 1.98983 4.88908 2.01679 4.74713C2.04374 4.60518 2.11502 4.47543 2.22037 4.37654L3.62437 3.05054C3.72279 2.95772 3.84594 2.89531 3.979 2.87083C4.11205 2.84634 4.24935 2.86083 4.37437 2.91254L6.27237 3.69654C6.48237 3.55654 6.67237 3.44354 6.84437 3.35254C7.04937 3.24354 7.32337 3.12954 7.66837 3.00654L8.32837 1.16554C8.37716 1.03081 8.46635 0.914426 8.58376 0.832276C8.70117 0.750126 8.84107 0.706217 8.98437 0.706545H11.0784ZM10.0244 7.72554C8.35737 7.72554 7.00637 9.06054 7.00637 10.7085C7.00637 12.3565 8.35737 13.6925 10.0244 13.6925C11.6904 13.6925 13.0414 12.3565 13.0414 10.7085C13.0414 9.06054 11.6914 7.72554 10.0244 7.72554Z" fill="#1B0072"/>
</g>
<defs>
<clipPath id="clip0_176_623">
<rect width="20" height="20" fill="white" transform="translate(0 0.706543)"/>
</clipPath>
</defs>
</svg>
