<svg width="142" height="24" viewBox="0 0 142 24" fill="none" xmlns="http://www.w3.org/2000/svg">
<path d="M12 0L14.6942 8.2918H23.4127L16.3593 13.4164L19.0534 21.7082L12 16.5836L4.94658 21.7082L7.64074 13.4164L0.587322 8.2918H9.30583L12 0Z" fill="#FAAD13"/>
<path d="M42 0L44.6942 8.2918H53.4127L46.3593 13.4164L49.0534 21.7082L42 16.5836L34.9466 21.7082L37.6407 13.4164L30.5873 8.2918H39.3058L42 0Z" fill="#FAAD13"/>
<path d="M71 0L73.6942 8.2918H82.4127L75.3593 13.4164L78.0534 21.7082L71 16.5836L63.9466 21.7082L66.6407 13.4164L59.5873 8.2918H68.3058L71 0Z" fill="#FAAD13"/>
<path d="M100 0L102.694 8.2918H111.413L104.359 13.4164L107.053 21.7082L100 16.5836L92.9466 21.7082L95.6407 13.4164L88.5873 8.2918H97.3058L100 0Z" fill="#FAAD13"/>
<path d="M130 0L132.694 8.2918H141.413L134.359 13.4164L137.053 21.7082L130 16.5836L122.947 21.7082L125.641 13.4164L118.587 8.2918H127.306L130 0Z" fill="#D8D8D8"/>
</svg>
