<svg width="13" height="13" viewBox="0 0 13 13" fill="none" xmlns="http://www.w3.org/2000/svg">
<path d="M7.09914 12.5275L12.4148 7.21191C12.6718 6.95759 12.6718 6.54199 12.4148 6.28495L7.09914 0.972078C6.84485 0.715037 6.42922 0.715037 6.17221 0.972078L5.56517 1.57911C5.30268 1.83888 5.30813 2.26271 5.57612 2.517L8.87104 5.65605H1.01245C0.648784 5.65605 0.356201 5.94863 0.356201 6.31229V7.18729C0.356201 7.55096 0.648784 7.84354 1.01245 7.84354H8.87104L5.57612 10.9826C5.31088 11.2369 5.30541 11.6607 5.56517 11.9205L6.17221 12.5275C6.4265 12.7845 6.84213 12.7845 7.09914 12.5275Z" fill="#183B56"/>
</svg>
